<svg xmlns="http://www.w3.org/2000/svg" viewBox="0 0 16.21 13.79"><defs><style>.cls-1{fill:#005d88;}</style></defs><g id="Layer_2" data-name="Layer 2"><g id="ghi_chu" data-name="ghi chu"><path class="cls-1" d="M10.37.27S9.3,1.76,9.08.29c0,0-.2-.64-.78,0,0,0-.79,1.14-1.08,1.7,0,0-.33,1.14-.87,2.88,0,0-.74,2-1.56.4,0,0-.65-.94-1.16.43,0,0-.09,1.31-.7,1,0,0-.63-.37-.91,1.9a2.31,2.31,0,0,1-.7,1.8A4.73,4.73,0,0,0,.05,12.61s-.38,1.24.9.69l15.26.49s-1.92-4.17-1.53-5.37a3.23,3.23,0,0,0-.9-2.08s-.78-1.07-1.41.2a1.58,1.58,0,0,1-.67-1.27,6,6,0,0,0-1-2.63,5.7,5.7,0,0,1-.16-1.54V.31Z"/></g></g></svg>