<svg xmlns="http://www.w3.org/2000/svg" viewBox="0 0 12.2 14.27"><defs><style>.cls-1{fill:#231f20;}</style></defs><g id="Layer_2" data-name="Layer 2"><g id="ghi_chu" data-name="ghi chu"><polygon class="cls-1" points="9.58 9.73 9.58 10.71 12.2 10.71 10.12 7.11 12.2 3.56 9.58 3.56 9.58 4.49 10.57 4.49 9.58 6.12 9.58 8.2 10.57 9.73 9.58 9.73"/><rect class="cls-1" x="8.89" y="3.56" width="0.69" height="0.94"/><polygon class="cls-1" points="9.58 8.2 9.58 6.12 9.58 6.17 8.89 4.84 8.89 6.96 9.04 7.11 8.89 7.31 8.89 9.23 9.58 8.1 9.58 8.2"/><rect class="cls-1" x="8.89" y="9.73" width="0.69" height="0.99"/><polygon class="cls-1" points="8.89 4.49 8.89 3.56 8.1 3.56 6.12 0.2 6.12 2.13 7.01 3.56 6.12 3.56 6.12 4.49 7.55 4.49 8.89 6.96 8.89 4.84 8.79 4.49 8.89 4.49"/><polygon class="cls-1" points="8.89 9.23 8.89 7.31 7.55 9.73 6.12 9.73 6.12 10.71 7.01 10.71 6.12 12.2 6.12 14.12 8.1 10.71 8.89 10.71 8.89 9.73 8.64 9.73 8.89 9.23"/><polygon class="cls-1" points="6.12 2.13 6.12 0.2 6.07 0 4.05 3.56 3.36 3.56 3.36 4.49 3.51 4.49 3.36 4.69 3.36 6.62 4.59 4.49 6.12 4.49 6.12 3.56 5.13 3.56 6.07 1.93 6.12 2.13"/><polygon class="cls-1" points="6.12 10.71 6.12 9.73 4.59 9.73 3.36 7.65 3.36 9.58 3.51 9.73 3.36 9.73 3.36 10.71 4.05 10.71 6.07 14.27 6.12 14.12 6.12 12.2 6.07 12.34 5.13 10.71 6.12 10.71"/><rect class="cls-1" x="2.57" y="3.56" width="0.79" height="0.94"/><polygon class="cls-1" points="3.36 6.62 3.36 4.69 2.57 6.12 2.57 8.2 3.36 9.58 3.36 7.65 3.11 7.11 3.36 6.62"/><rect class="cls-1" x="2.57" y="9.73" width="0.79" height="0.99"/><polygon class="cls-1" points="2.57 4.49 2.57 3.56 0 3.56 2.02 7.11 0 10.71 2.57 10.71 2.57 9.73 1.63 9.73 2.57 8.1 2.57 8.2 2.57 6.12 2.57 6.17 1.63 4.49 2.57 4.49"/></g></g></svg>