<svg xmlns="http://www.w3.org/2000/svg" xmlns:xlink="http://www.w3.org/1999/xlink" viewBox="0 0 30.87 18.35"><defs><style>.cls-1,.cls-10,.cls-11,.cls-12,.cls-13,.cls-14,.cls-15,.cls-16,.cls-17,.cls-18,.cls-19,.cls-2,.cls-20,.cls-21,.cls-22,.cls-23,.cls-25,.cls-26,.cls-27,.cls-28,.cls-29,.cls-3,.cls-30,.cls-34,.cls-4,.cls-5,.cls-6,.cls-7,.cls-8,.cls-9{stroke:#231f20;stroke-width:0.01px;}.cls-1{fill:url(#linear-gradient);}.cls-2{fill:url(#linear-gradient-2);}.cls-3{fill:url(#linear-gradient-3);}.cls-4{fill:url(#linear-gradient-4);}.cls-5{fill:url(#linear-gradient-5);}.cls-6{fill:url(#linear-gradient-6);}.cls-7{fill:url(#linear-gradient-7);}.cls-8{fill:url(#linear-gradient-8);}.cls-9{fill:url(#linear-gradient-9);}.cls-10{fill:url(#linear-gradient-10);}.cls-11{fill:url(#linear-gradient-11);}.cls-12{fill:url(#linear-gradient-12);}.cls-13{fill:url(#linear-gradient-13);}.cls-14{fill:url(#linear-gradient-14);}.cls-15{fill:url(#linear-gradient-15);}.cls-16{fill:url(#linear-gradient-16);}.cls-17{fill:url(#linear-gradient-17);}.cls-18{fill:url(#linear-gradient-18);}.cls-19{fill:url(#linear-gradient-19);}.cls-20{fill:url(#linear-gradient-20);}.cls-21{fill:url(#linear-gradient-21);}.cls-22{fill:url(#linear-gradient-22);}.cls-23{fill:url(#linear-gradient-23);}.cls-24{fill:#fff;}.cls-25{fill:url(#linear-gradient-24);}.cls-26{fill:url(#linear-gradient-25);}.cls-27{fill:url(#linear-gradient-26);}.cls-28{fill:url(#linear-gradient-27);}.cls-29{fill:url(#linear-gradient-28);}.cls-30{fill:url(#linear-gradient-29);}.cls-31{fill:url(#linear-gradient-30);}.cls-32{fill:url(#linear-gradient-31);}.cls-33{fill:#231f20;}.cls-34{fill:none;}</style><linearGradient id="linear-gradient" x1="28.29" y1="-868.79" x2="117.66" y2="-868.79" gradientTransform="translate(-8.15 227.14) scale(0.34 0.25)" gradientUnits="userSpaceOnUse"><stop offset="0" stop-color="#ebbe12"/><stop offset="0.56" stop-color="#c6891b"/><stop offset="0.98" stop-color="#897a2d"/></linearGradient><linearGradient id="linear-gradient-2" x1="63.35" y1="-872.11" x2="64" y2="-872.11" xlink:href="#linear-gradient"/><linearGradient id="linear-gradient-3" x1="27.86" y1="-868.7" x2="63.55" y2="-868.7" xlink:href="#linear-gradient"/><linearGradient id="linear-gradient-4" x1="50.25" y1="-868.49" x2="50.25" y2="-868.49" xlink:href="#linear-gradient"/><linearGradient id="linear-gradient-5" x1="76.35" y1="-874.29" x2="82.36" y2="-874.29" xlink:href="#linear-gradient"/><linearGradient id="linear-gradient-6" x1="95.92" y1="-874.88" x2="103.67" y2="-873.91" xlink:href="#linear-gradient"/><linearGradient id="linear-gradient-7" x1="66.78" y1="-872.81" x2="76.62" y2="-872.81" xlink:href="#linear-gradient"/><linearGradient id="linear-gradient-8" x1="76.69" y1="-858.44" x2="109.77" y2="-858.44" xlink:href="#linear-gradient"/><linearGradient id="linear-gradient-9" x1="77.16" y1="-850.61" x2="102.49" y2="-850.61" xlink:href="#linear-gradient"/><linearGradient id="linear-gradient-10" x1="77.25" y1="-854.44" x2="77.25" y2="-854.44" xlink:href="#linear-gradient"/><linearGradient id="linear-gradient-11" x1="81.96" y1="-853.81" x2="81.96" y2="-853.81" xlink:href="#linear-gradient"/><linearGradient id="linear-gradient-12" x1="81.79" y1="-854.65" x2="82.43" y2="-854.65" xlink:href="#linear-gradient"/><linearGradient id="linear-gradient-13" x1="84.96" y1="-853.81" x2="84.96" y2="-853.81" xlink:href="#linear-gradient"/><linearGradient id="linear-gradient-14" x1="90.79" y1="-853.59" x2="91.44" y2="-853.59" xlink:href="#linear-gradient"/><linearGradient id="linear-gradient-15" x1="94.23" y1="-853.38" x2="94.86" y2="-853.38" xlink:href="#linear-gradient"/><linearGradient id="linear-gradient-16" x1="94.81" y1="-853.16" x2="94.81" y2="-853.16" xlink:href="#linear-gradient"/><linearGradient id="linear-gradient-17" x1="100.66" y1="-852.95" x2="101.29" y2="-852.95" xlink:href="#linear-gradient"/><linearGradient id="linear-gradient-18" x1="28.29" y1="-872.11" x2="63.53" y2="-872.11" xlink:href="#linear-gradient"/><linearGradient id="linear-gradient-19" x1="77.7" y1="-847.3" x2="110.53" y2="-847.3" xlink:href="#linear-gradient"/><linearGradient id="linear-gradient-20" x1="80.58" y1="-844.91" x2="113.37" y2="-844.91" xlink:href="#linear-gradient"/><linearGradient id="linear-gradient-21" x1="82.84" y1="-842.36" x2="115.67" y2="-842.36" xlink:href="#linear-gradient"/><linearGradient id="linear-gradient-22" x1="85.73" y1="-840.29" x2="118.57" y2="-840.29" xlink:href="#linear-gradient"/><linearGradient id="linear-gradient-23" x1="28.71" y1="-859.1" x2="77.11" y2="-859.1" xlink:href="#linear-gradient"/><linearGradient id="linear-gradient-24" x1="79.28" y1="-892.03" x2="84.62" y2="-892.03" xlink:href="#linear-gradient"/><linearGradient id="linear-gradient-25" x1="100.76" y1="-891.89" x2="106.11" y2="-891.89" xlink:href="#linear-gradient"/><linearGradient id="linear-gradient-26" x1="86.99" y1="-891.99" x2="92.34" y2="-891.99" xlink:href="#linear-gradient"/><linearGradient id="linear-gradient-27" x1="94.22" y1="-892.04" x2="99.58" y2="-892.04" xlink:href="#linear-gradient"/><linearGradient id="linear-gradient-28" x1="94.87" y1="-882.18" x2="96.15" y2="-882.18" xlink:href="#linear-gradient"/><linearGradient id="linear-gradient-29" x1="92.94" y1="-897.73" x2="94.86" y2="-897.73" xlink:href="#linear-gradient"/><linearGradient id="linear-gradient-30" x1="-0.37" y1="-897.68" x2="52.36" y2="-891.09" gradientTransform="translate(-1.89 226.94) scale(0.39 0.25)" gradientUnits="userSpaceOnUse"><stop offset="0.03" stop-color="#fff"/><stop offset="0.53" stop-color="#c5ba94"/><stop offset="0.76" stop-color="#c1b58d"/><stop offset="0.98" stop-color="#00653b"/></linearGradient><linearGradient id="linear-gradient-31" x1="51.83" y1="-837.8" x2="66.23" y2="-864.94" gradientTransform="translate(-8.15 227.14) scale(0.34 0.25)" xlink:href="#linear-gradient-30"/></defs><g id="Layer_2" data-name="Layer 2"><g id="ghi_chu" data-name="ghi chu"><path class="cls-1" d="M22.11,17s-4.77-7-21.55-6.53L.42,9.41S8.66,7.49,13.73,3.2c0,0,3.76-2.25,7.37-2.14,0,0,.58-1.71,2.32-.11,0,0,4.19-.11,4.48,3.86v6.64l-.87.32-1.59.43v1.39s4.78,1.71,5.07,2.67"/><line class="cls-2" x1="12.43" y1="4.16" x2="12.28" y2="11.45"/><path class="cls-3" d="M12.28,7.27c-4,2.25-12,2.78-12,2.78l12-.53Z"/><line class="cls-4" x1="8.81" y1="10.91" x2="8.81" y2="6.52"/><path class="cls-5" d="M17.05,13.26c-1.45-13.27,1.59-12,1.59-12"/><path class="cls-6" d="M16.62,4.92c5.35,1.92,6.22,5.45,6.22,5.45S25,5.67,28.05,5.13L27.9,4.06s-4.19,2.25-4.63,3.31c0,0-5.06-3.63-6.51-3.52Z"/><path class="cls-7" d="M16.62,6.09,13.44,7v.64s3,.32,3.18,1.39S16.62,6.09,16.62,6.09Z"/><path class="cls-8" d="M27.9,11.45s-9.4.53-11.14-.54"/><path class="cls-9" d="M25.44,13.59s-7.23-.11-8.53-.75"/><line class="cls-10" x1="17.92" y1="11.34" x2="17.92" y2="13.16"/><line class="cls-11" x1="19.51" y1="11.55" x2="19.51" y2="13.26"/><line class="cls-12" x1="18.64" y1="11.34" x2="18.5" y2="13.05"/><line class="cls-13" x1="20.53" y1="11.55" x2="20.53" y2="13.26"/><line class="cls-14" x1="21.54" y1="11.55" x2="21.68" y2="13.37"/><line class="cls-15" x1="22.69" y1="11.55" x2="22.84" y2="13.48"/><line class="cls-16" x1="23.85" y1="11.66" x2="23.85" y2="13.48"/><line class="cls-17" x1="24.86" y1="11.66" x2="25.01" y2="13.59"/><path class="cls-18" d="M.42,9.73s8.82-1.5,11.86-3.85"/><path class="cls-19" d="M17.09,14s9.87-.32,11.07.17"/><path class="cls-20" d="M18.06,14.62s9.88-.33,11.07.16"/><path class="cls-21" d="M18.82,15.26s9.88-.32,11.07.16"/><path class="cls-22" d="M19.8,15.78s9.87-.32,11.07.16"/><path class="cls-23" d="M16.87,11.93S4.54,9.44.56,10.48"/><path class="cls-24" d="M18.93,9.59c.6,0,1.08-.36,1.08-.8S19.53,8,18.93,8s-1.07.35-1.07.79S18.34,9.59,18.93,9.59Z"/><path class="cls-24" d="M26.1,9.59c.59,0,1.08-.36,1.08-.8S26.69,8,26.1,8,25,8.35,25,8.79,25.51,9.59,26.1,9.59Z"/><rect class="cls-25" x="17.65" y="2.47" width="1.73" height="0.64"/><rect class="cls-26" x="24.9" y="2.51" width="1.73" height="0.64"/><rect class="cls-27" x="20.25" y="2.48" width="1.73" height="0.64"/><rect class="cls-28" x="22.69" y="2.47" width="1.73" height="0.64"/><line class="cls-29" x1="23.27" y1="7.37" x2="22.91" y2="3.17"/><path class="cls-30" d="M22.84,2.48s-.15-2-.58-2.24"/><path class="cls-31" d="M.92,2.62C1.39,1.22,4.15,2,5.63,1.27,6.34.91,7,.07,7.89,0s1.45.58,2.28.81c1.32.37,1.41-.06,2.61-.19.35,0,.68.18,1.13.11S14.59.33,15,.24c1.28-.3,1.35,0,2.48.16.63.1,1.65-.06,1.56.53a5.6,5.6,0,0,0-2.42,0c-.81.14-.72.63-1.27.85C14,2.32,14.3,1,10.2,1.8a2.92,2.92,0,0,1-2.42.9c-.57,0-1.13-.33-1.8-.16-.49.12-.42.54-1,.71s-1-.07-1.62,0c-.41.06-.13.48-1.63.4-.39,0-.79.45-1.3.14s0-.72.63-.78c-.11-.33.23-.26.35-.4"/><path class="cls-32" d="M.42,11.47c-.09.07-.37-.11-.17.11.8.19,1.69.25,2.49.41a5.54,5.54,0,0,1-.54.21c1.48.83,4.09-.39,5.64.63-.13.09-.27.32-.45.42.63.14,1.52,0,2.09.31-.27,0-.6.2-.93.23.18.78,5.47.15,4.26,1.36,1,.36,2.17.24,3.13.6-.31.14-.51.51-.66.61a3.35,3.35,0,0,1,1,.2c-.37.16-.37.41-.55.56.76.16,1.63,0,2.38.19a1.2,1.2,0,0,1-.55,1c.88,0,1.28-.82,2.09-.42a5.5,5.5,0,0,0,.84-.91c.32.13,1.45,0,1.76.14.07-1.07-2.51-2.39-3.57-3A17.75,17.75,0,0,0,13,11.79a51.45,51.45,0,0,0-6.6-.74A49.66,49.66,0,0,0,0,10.76,1.77,1.77,0,0,0,.84,11"/><polygon class="cls-33" points="8.75 8.64 7.63 8.93 7.63 7.99 8.82 7.57 8.75 8.64"/><polygon class="cls-33" points="7.06 9.07 6.08 9.31 6.08 8.51 7.12 8.15 7.06 9.07"/><polygon class="cls-33" points="5.41 9.3 4.61 9.52 4.61 8.81 5.46 8.5 5.41 9.3"/><polygon class="cls-33" points="3.95 9.55 3.38 9.72 3.38 9.15 3.99 8.89 3.95 9.55"/><polygon class="cls-33" points="2.6 9.71 2.1 9.87 2.1 9.34 2.63 9.1 2.6 9.71"/><path class="cls-34" d="M1.42,11c15.34-.07,20.47,5.36,20.66,5.56"/></g></g></svg>